<svg width="68" height="60" viewBox="0 0 68 60" fill="none" xmlns="http://www.w3.org/2000/svg">
<path d="M4 59.9999C14 59.9999 27.3333 56.6666 27.3333 33.3333V6.66661C27.3333 2.49995 24.8133 -0.0567204 20.6667 -5.37236e-05H7.33333C3.16666 -5.37236e-05 0.666664 2.49995 0.666664 6.57328V26.6666C0.666664 30.8333 3.16666 33.3333 7.33333 33.3333C10.6667 33.3333 10.6667 33.3333 10.6667 36.6666V39.9999C10.6667 43.3333 7.33333 46.6666 4 46.6666C0.666664 46.6666 0.666664 46.6933 0.666664 50.1033V56.6666C0.666664 59.9999 0.666664 59.9999 4 59.9999Z" fill="#D7F0EE"/>
<path d="M44 59.9999C54 59.9999 67.3333 56.6666 67.3333 33.3333V6.66661C67.3333 2.49995 64.81 -0.0567204 60.6667 -5.37236e-05H47.3333C43.1667 -5.37236e-05 40.6667 2.49995 40.6667 6.57328V26.6666C40.6667 30.8333 43.1667 33.3333 47.3333 33.3333H49.8333C49.8333 40.8333 50.6667 46.6666 40.6667 46.6666V56.6666C40.6667 59.9999 40.6667 59.9999 44 59.9999Z" fill="#D7F0EE"/>
</svg>
