<svg width="34" height="34" viewBox="0 0 34 34" fill="none" xmlns="http://www.w3.org/2000/svg">
<path d="M29.1558 0.286133H4.84415C2.32659 0.286133 0.285706 2.32702 0.285706 4.84457V29.1563C0.285706 31.6738 2.32659 33.7147 4.84415 33.7147H29.1558C31.6734 33.7147 33.7143 31.6738 33.7143 29.1563V4.84457C33.7143 2.32702 31.6734 0.286133 29.1558 0.286133Z" fill="white"/>
<path d="M15.9724 21.27C14.3523 21.101 12.8917 20.7002 11.6419 19.724C11.4861 19.6024 11.3266 19.4846 11.1841 19.3441C10.6371 18.818 10.5821 18.2159 11.0151 17.5967C11.3855 17.0649 12.0066 16.9224 12.6542 17.2282C12.7786 17.2912 12.898 17.3636 13.0113 17.4447C14.1695 18.2319 15.5346 18.6587 16.9349 18.6716C18.3352 18.6844 19.7079 18.2827 20.8803 17.5169C21.1044 17.3354 21.3628 17.201 21.6401 17.1219C21.8979 17.0456 22.1739 17.0583 22.4236 17.1579C22.6734 17.2574 22.8824 17.4381 23.0171 17.6708C23.359 18.2292 23.3552 18.7724 22.9335 19.2054C22.2872 19.8591 21.5062 20.364 20.6448 20.685C19.8062 20.9863 18.9334 21.1822 18.0465 21.2681C18.1795 21.4144 18.2364 21.4847 18.3276 21.5682C19.5299 22.7781 20.7379 23.9823 21.9364 25.1941C22.1273 25.3677 22.2568 25.5985 22.3054 25.8519C22.3541 26.1053 22.3192 26.3677 22.2061 26.5996C22.0909 26.8538 21.9033 27.0685 21.6669 27.2168C21.4304 27.365 21.1555 27.4404 20.8765 27.4334C20.5501 27.4013 20.2481 27.2465 20.0313 27.0004C19.1234 26.0868 18.1984 25.1903 17.3096 24.2596C17.0512 23.9899 16.9297 24.0412 16.698 24.2748C15.7844 25.2245 14.8556 26.1419 13.923 27.0612C13.7499 27.2531 13.5178 27.382 13.2634 27.4277C13.009 27.4735 12.7466 27.4334 12.5175 27.3138C12.2692 27.1978 12.0597 27.0126 11.9142 26.7805C11.7686 26.5483 11.6932 26.2791 11.697 26.0051C11.7244 25.6665 11.8824 25.3518 12.1376 25.1276C13.3304 23.9386 14.5194 22.749 15.7046 21.5587C15.7844 21.4771 15.8603 21.3916 15.9724 21.27Z" fill="#1D2020"/>
<path d="M16.9583 17.1292C15.9109 17.1231 14.8889 16.8061 14.0219 16.2183C13.1549 15.6306 12.482 14.7986 12.0886 13.8279C11.6951 12.8572 11.5988 11.7915 11.8118 10.7659C12.0249 9.74041 12.5377 8.80126 13.2853 8.06759C14.0328 7.33393 14.9814 6.8388 16.0107 6.64501C17.0401 6.45121 18.1038 6.56749 19.0669 6.97908C20.0301 7.39066 20.8493 8.07903 21.4207 8.95686C21.9921 9.8347 22.29 10.8625 22.2764 11.9098C22.2574 13.3053 21.6879 14.6368 20.6918 15.6143C19.6958 16.5919 18.3539 17.1364 16.9583 17.1292ZM19.5851 11.8357C19.5835 11.3238 19.4302 10.8238 19.1443 10.399C18.8585 9.97428 18.453 9.64391 17.9793 9.44973C17.5056 9.25556 16.9849 9.2063 16.4832 9.30822C15.9815 9.41013 15.5213 9.65862 15.1609 10.0222C14.8005 10.3858 14.556 10.8482 14.4586 11.3508C14.3611 11.8534 14.4149 12.3736 14.6133 12.8456C14.8116 13.3176 15.1456 13.7201 15.5728 14.0022C16 14.2843 16.5014 14.4332 17.0133 14.4302C17.3528 14.4295 17.6887 14.3617 18.0019 14.2308C18.3151 14.0998 18.5993 13.9083 18.8382 13.6673C19.0772 13.4262 19.2662 13.1403 19.3943 12.826C19.5225 12.5117 19.5873 12.1751 19.5851 11.8357Z" fill="#1D2020"/>
</svg>
