<svg width="152" height="47" viewBox="0 0 152 47" fill="none" xmlns="http://www.w3.org/2000/svg">
<g clip-path="url(#clip0_1_1644)">
<path d="M150.39 40.6547C150.39 41.2348 150.278 41.8093 150.062 42.3452C149.846 42.8811 149.529 43.368 149.129 43.778C148.73 44.188 148.256 44.5131 147.734 44.7347C147.212 44.9563 146.652 45.07 146.088 45.0694H5.30615C4.16511 45.0706 3.07031 44.6062 2.26253 43.7783C1.45474 42.9505 1.00011 41.8269 0.998627 40.6547V5.44902C1.00011 4.27631 1.45456 3.15214 2.26218 2.32334C3.06981 1.49454 4.16459 1.02887 5.30615 1.02856H146.087C146.652 1.02856 147.211 1.14291 147.733 1.36507C148.255 1.58724 148.729 1.91286 149.129 2.32335C149.528 2.73385 149.845 3.22116 150.061 3.75747C150.278 4.29378 150.389 4.86857 150.389 5.44902L150.39 40.6547Z" fill="white"/>
<path d="M146.088 46.0969H5.30614C3.90051 46.0966 2.5524 45.5235 1.55763 44.5033C0.562857 43.4831 0.00267453 42.0992 0 40.6552L0 5.45064C0.00207943 4.00594 0.561893 2.62107 1.55663 1.59984C2.55137 0.578603 3.89981 0.00439321 5.30614 0.00317383L146.087 0.00317383C147.493 0.00500165 148.841 0.579407 149.835 1.60051C150.83 2.62161 151.39 4.00613 151.393 5.45064V40.6552C151.395 43.6567 149.011 46.0969 146.088 46.0969Z" fill="#A6A6A6"/>
<path d="M150.39 40.6547C150.39 41.2348 150.278 41.8093 150.062 42.3452C149.846 42.8811 149.529 43.368 149.129 43.778C148.73 44.188 148.256 44.5131 147.734 44.7347C147.212 44.9563 146.652 45.07 146.088 45.0694H5.30615C4.16511 45.0706 3.07031 44.6062 2.26253 43.7783C1.45474 42.9505 1.00011 41.8269 0.998627 40.6547V5.44902C1.00011 4.27631 1.45456 3.15214 2.26218 2.32334C3.06981 1.49454 4.16459 1.02887 5.30615 1.02856H146.087C146.652 1.02856 147.211 1.14291 147.733 1.36507C148.255 1.58724 148.729 1.91286 149.129 2.32335C149.528 2.73385 149.845 3.22116 150.061 3.75747C150.278 4.29378 150.389 4.86857 150.389 5.44902L150.39 40.6547Z" fill="black"/>
<path d="M33.8048 22.8073C33.7723 19.0923 36.7659 17.2849 36.9028 17.2008C35.2074 14.6615 32.5795 14.3145 31.6561 14.2869C29.449 14.0483 27.3082 15.6435 26.1839 15.6435C25.0372 15.6435 23.3059 14.3099 21.4399 14.3491C19.0387 14.3871 16.7924 15.8153 15.5604 18.033C13.0178 22.5549 14.9141 29.2 17.3501 32.8551C18.5686 34.6463 19.9925 36.6439 21.8562 36.5735C23.6795 36.4975 24.3606 35.3805 26.5609 35.3805C28.741 35.3805 29.3806 36.5735 31.2813 36.5286C33.2382 36.4975 34.4702 34.7304 35.6461 32.9242C37.0542 30.8736 37.6198 28.8519 37.6422 28.7481C37.5973 28.732 33.843 27.2589 33.8048 22.8073ZM30.2143 11.8824C31.1949 10.6226 31.8659 8.90855 31.6797 7.16919C30.2603 7.23374 28.4852 8.17777 27.463 9.40996C26.5587 10.4958 25.7508 12.2755 25.9595 13.9491C27.5539 14.0713 29.191 13.1227 30.2143 11.8824Z" fill="white"/>
<path d="M146.088 0.00317383H70.6809L100.216 46.0969H146.088C147.494 46.0957 148.842 45.5218 149.837 44.501C150.831 43.4803 151.391 42.096 151.394 40.6517V5.45064C151.392 4.00604 150.832 2.62134 149.837 1.60018C148.842 0.579005 147.494 0.00469755 146.088 0.00317383Z" fill="url(#paint0_linear_1_1644)"/>
<path d="M60.2145 36.3167H57.6663L56.2705 31.8109H51.4188L50.0891 36.3167H47.6083L52.4163 20.9771H55.3852L60.2145 36.3167ZM55.8497 29.9206L54.5874 25.9151C54.4539 25.5059 54.2026 24.5423 53.8345 23.0253H53.7896C53.6415 23.6778 53.4048 24.6414 53.0805 25.9151L51.8395 29.9206H55.8497ZM72.5547 30.6502C72.5547 32.5313 72.0576 34.0183 71.0624 35.1098C70.1715 36.0815 69.064 36.5668 67.7434 36.5668C66.3172 36.5668 65.2917 36.0446 64.669 34.998V40.8017H62.2768V28.8912C62.2768 27.7098 62.2465 26.4983 62.1881 25.2557H64.292L64.4255 27.0089H64.4704C65.2681 25.688 66.4788 25.0275 68.1035 25.0275C69.3737 25.0275 70.434 25.5428 71.2823 26.5744C72.1294 27.6083 72.5547 28.9662 72.5547 30.6502ZM70.1176 30.7401C70.1176 29.6635 69.882 28.776 69.4085 28.0763C68.8912 27.349 68.1967 26.9847 67.326 26.9847C66.7358 26.9847 66.1994 27.1876 65.7203 27.5876C65.2401 27.991 64.9259 28.5178 64.7789 29.1702C64.7133 29.4142 64.676 29.6653 64.6678 29.9183V31.7637C64.6678 32.5671 64.908 33.246 65.3882 33.8016C65.8684 34.3548 66.4923 34.6326 67.2598 34.6326C68.1608 34.6326 68.862 34.2742 69.3636 33.563C69.8663 32.8495 70.1176 31.9089 70.1176 30.7401ZM84.9387 30.6502C84.9387 32.5313 84.4416 34.0183 83.4464 35.1098C82.5543 36.0815 81.448 36.5668 80.1262 36.5668C78.7001 36.5668 77.6746 36.0446 77.0518 34.998V40.8017H74.6596V28.8912C74.6596 27.7098 74.6293 26.4983 74.571 25.2557H76.6748L76.8084 27.0089H76.8532C77.6499 25.688 78.8606 25.0275 80.4864 25.0275C81.7554 25.0275 82.8158 25.5428 83.6663 26.5744C84.5123 27.6083 84.9387 28.9662 84.9387 30.6502ZM82.5005 30.7401C82.5005 29.6635 82.2637 28.776 81.7902 28.0763C81.273 27.349 80.5807 26.9847 79.71 26.9847C79.1198 26.9847 78.5834 27.1876 78.1021 27.5876C77.6218 27.991 77.3088 28.5178 77.1618 29.1702C77.0889 29.4745 77.0496 29.7223 77.0496 29.9183V31.7637C77.0496 32.5671 77.2908 33.246 77.7688 33.8016C78.2491 34.3537 78.8729 34.6326 79.6426 34.6326C80.5448 34.6326 81.246 34.2742 81.7465 33.563C82.2491 32.8495 82.5005 31.9089 82.5005 30.7401ZM98.7847 32.0138C98.7847 33.3198 98.3404 34.3814 97.4573 35.2009C96.4856 36.0954 95.1291 36.5437 93.3899 36.5437C91.7831 36.5437 90.495 36.2256 89.5233 35.5882L90.0765 33.5399C91.1256 34.1785 92.278 34.4966 93.5324 34.4966C94.4345 34.4966 95.1358 34.2868 95.6362 33.8707C96.1378 33.4535 96.3914 32.8956 96.3914 32.1994C96.3914 31.5758 96.1815 31.0536 95.7697 30.6283C95.3557 30.2041 94.6713 29.8088 93.7097 29.4457C91.0953 28.444 89.787 26.979 89.787 25.0517C89.787 23.793 90.2493 22.7625 91.1716 21.9568C92.0939 21.1523 93.317 20.75 94.8385 20.75C96.1973 20.75 97.3294 20.9932 98.2281 21.4785L97.6279 23.4818C96.7818 23.0115 95.827 22.7764 94.7588 22.7764C93.915 22.7764 93.253 22.9896 92.7795 23.4138C92.3812 23.793 92.1792 24.2552 92.1792 24.8039C92.1792 25.4091 92.4092 25.9116 92.867 26.3058C93.2642 26.6689 93.9891 27.0643 95.0371 27.4884C96.3229 28.021 97.2677 28.6411 97.8725 29.3535C98.4817 30.0658 98.7847 30.9545 98.7847 32.0138ZM106.714 27.1H104.077V32.4702C104.077 33.8361 104.542 34.5174 105.473 34.5174C105.901 34.5174 106.255 34.4805 106.536 34.4033L106.602 36.2694C106.131 36.4504 105.51 36.5414 104.742 36.5414C103.797 36.5414 103.059 36.2452 102.526 35.6527C101.995 35.0603 101.728 34.0678 101.728 32.6708V27.0954H100.157V25.2511H101.728V23.2259L104.077 22.4974V25.2511H106.714V27.1ZM118.588 30.6952C118.588 32.3953 118.114 33.7912 117.169 34.8828C116.181 36.0066 114.866 36.5668 113.227 36.5668C111.644 36.5668 110.387 36.0285 109.449 34.9531C108.511 33.8753 108.042 32.5175 108.042 30.8796C108.042 29.1656 108.526 27.7616 109.492 26.6701C110.461 25.5773 111.764 25.031 113.404 25.031C114.984 25.031 116.253 25.5704 117.213 26.647C118.131 27.6913 118.588 29.0399 118.588 30.6952ZM116.108 30.7516C116.108 29.7384 115.895 28.8693 115.467 28.142C114.966 27.2637 114.248 26.8245 113.317 26.8245C112.359 26.8245 111.624 27.2637 111.124 28.142C110.695 28.8693 110.482 29.7534 110.482 30.7977C110.482 31.8121 110.695 32.6835 111.124 33.4085C111.641 34.2868 112.363 34.726 113.297 34.726C114.212 34.726 114.929 34.2776 115.447 33.3866C115.887 32.642 116.108 31.7671 116.108 30.7516ZM126.367 27.417C126.118 27.3708 125.866 27.3481 125.613 27.349C124.771 27.349 124.12 27.674 123.663 28.3287C123.265 28.9051 123.066 29.6335 123.066 30.513V36.3167H120.673V28.7391C120.676 27.578 120.652 26.4169 120.604 25.2569H122.688L122.775 27.3732H122.841C123.095 26.6459 123.492 26.0592 124.037 25.62C124.537 25.2362 125.143 25.0284 125.766 25.0275C125.987 25.0275 126.187 25.0437 126.365 25.0725L126.367 27.417ZM137.065 30.2629C137.071 30.6365 137.042 31.0098 136.978 31.3775H129.801C129.828 32.4702 130.176 33.3071 130.843 33.8834C131.447 34.3975 132.229 34.6557 133.19 34.6557C134.252 34.6557 135.222 34.4828 136.094 34.1335L136.468 35.8383C135.45 36.2948 134.247 36.5218 132.859 36.5218C131.189 36.5218 129.879 36.017 128.925 35.0096C127.974 34.001 127.497 32.6455 127.497 30.9476C127.497 29.2808 127.94 27.8919 128.827 26.7842C129.756 25.6015 131.012 25.0102 132.592 25.0102C134.144 25.0102 135.318 25.6015 136.116 26.7842C136.748 27.7213 137.065 28.8832 137.065 30.2629ZM134.784 29.6255C134.801 28.8958 134.644 28.2676 134.32 27.7363C133.906 27.0516 133.268 26.7104 132.415 26.7104C131.632 26.7104 130.995 27.0435 130.51 27.7121C130.112 28.2434 129.875 28.882 129.802 29.6232L134.784 29.6255Z" fill="white"/>
<path d="M50.7285 15.5528C50.0632 15.5528 49.4876 15.5194 49.0085 15.4629V8.0467C49.6785 7.94036 50.3557 7.88795 51.0337 7.88994C53.7771 7.88994 55.0406 9.27659 55.0406 11.537C55.0406 14.1443 53.5482 15.5528 50.7285 15.5528ZM51.1302 8.84088C50.76 8.84088 50.4447 8.86393 50.1832 8.91926V14.5569C50.3246 14.58 50.5961 14.5903 50.9776 14.5903C52.7751 14.5903 53.7985 13.5391 53.7985 11.5704C53.7985 9.81488 52.8728 8.84088 51.1302 8.84088ZM58.9778 15.6093C57.4316 15.6093 56.4296 14.4232 56.4296 12.8129C56.4296 11.1347 57.4529 9.93821 59.0653 9.93821C60.5891 9.93821 61.6135 11.0678 61.6135 12.7242C61.6135 14.4232 60.5576 15.6093 58.9778 15.6093ZM59.0227 10.8211C58.1733 10.8211 57.6291 11.6372 57.6291 12.7784C57.6291 13.8976 58.1845 14.7137 59.0115 14.7137C59.8384 14.7137 60.3938 13.8411 60.3938 12.7553C60.3938 11.6488 59.8496 10.8211 59.0227 10.8211ZM70.4305 10.05L68.7755 15.486H67.6972L67.0116 13.1253C66.8412 12.5479 66.6992 11.962 66.5864 11.3698H66.5639C66.4775 11.9623 66.3137 12.5559 66.1398 13.1253L65.4105 15.486H64.321L62.7636 10.05H63.972L64.5712 12.6343C64.7126 13.2498 64.8315 13.8307 64.9302 14.3794H64.9527C65.0391 13.9218 65.1805 13.3501 65.388 12.6458L66.1398 10.0512H67.098L67.8173 12.5905C67.9912 13.206 68.1325 13.81 68.2425 14.3806H68.2739C68.3502 13.8215 68.4703 13.2279 68.633 12.5905L69.2759 10.0512L70.4305 10.05ZM76.5232 15.486H75.3473V12.3646C75.3473 11.4032 74.9882 10.9214 74.2802 10.9214C73.5834 10.9214 73.1043 11.537 73.1043 12.2528V15.486H71.9284V11.6038C71.9284 11.1231 71.9172 10.6079 71.8847 10.0489H72.9192L72.9742 10.888H73.0067C73.3231 10.3071 73.9649 9.93821 74.6842 9.93821C75.795 9.93821 76.5243 10.8108 76.5243 12.2309L76.5232 15.486ZM79.7659 15.486H78.5889V7.55566H79.7659V15.486ZM84.0532 15.6093C82.5082 15.6093 81.5051 14.4232 81.5051 12.8129C81.5051 11.1347 82.5284 9.93821 84.1396 9.93821C85.6645 9.93821 86.6878 11.0678 86.6878 12.7242C86.6889 14.4232 85.6319 15.6093 84.0532 15.6093ZM84.097 10.8211C83.2476 10.8211 82.7034 11.6372 82.7034 12.7784C82.7034 13.8976 83.2599 14.7137 84.0846 14.7137C84.9127 14.7137 85.467 13.8411 85.467 12.7553C85.4681 11.6488 84.925 10.8211 84.097 10.8211ZM91.3241 15.486L91.2388 14.8601H91.2074C90.8483 15.3638 90.3243 15.6093 89.6601 15.6093C88.7119 15.6093 88.0387 14.9269 88.0387 14.0094C88.0387 12.6677 89.1709 11.9738 91.1311 11.9738V11.8735C91.1311 11.1577 90.7619 10.7992 90.0326 10.7992C89.5108 10.7992 89.053 10.9341 88.6502 11.2027L88.4112 10.4085C88.9004 10.095 89.5108 9.93821 90.2278 9.93821C91.6102 9.93821 92.3081 10.6874 92.3081 12.1871V14.1892C92.3081 14.7379 92.3316 15.1632 92.3844 15.4871L91.3241 15.486ZM91.1625 12.7784C89.8564 12.7784 89.2011 13.1034 89.2011 13.8745C89.2011 14.4451 89.5389 14.7241 90.0079 14.7241C90.6059 14.7241 91.1625 14.2549 91.1625 13.6175V12.7784ZM98.0182 15.486L97.9632 14.6134H97.9306C97.5929 15.2727 97.0252 15.6093 96.2319 15.6093C94.9561 15.6093 94.0113 14.4566 94.0113 12.8348C94.0113 11.1347 94.9909 9.93706 96.3284 9.93706C97.0364 9.93706 97.5379 10.1826 97.8207 10.6759H97.8442V7.55566H99.0213V14.0209C99.0213 14.5465 99.0336 15.0387 99.065 15.486H98.0182ZM97.8442 12.2873C97.8442 11.5266 97.3539 10.8776 96.6055 10.8776C95.7337 10.8776 95.2007 11.6718 95.2007 12.7899C95.2007 13.8861 95.7539 14.6365 96.5819 14.6365C97.3214 14.6365 97.8442 13.976 97.8442 13.1933V12.2873ZM106.484 15.6093C104.939 15.6093 103.937 14.4232 103.937 12.8129C103.937 11.1347 104.96 9.93821 106.571 9.93821C108.096 9.93821 109.12 11.0678 109.12 12.7242C109.121 14.4232 108.065 15.6093 106.484 15.6093ZM106.528 10.8211C105.679 10.8211 105.135 11.6372 105.135 12.7784C105.135 13.8976 105.691 14.7137 106.517 14.7137C107.345 14.7137 107.899 13.8411 107.899 12.7553C107.901 11.6488 107.357 10.8211 106.528 10.8211ZM115.443 15.486H114.266V12.3646C114.266 11.4032 113.907 10.9214 113.199 10.9214C112.503 10.9214 112.025 11.537 112.025 12.2528V15.486H110.848V11.6038C110.848 11.1231 110.836 10.6079 110.804 10.0489H111.838L111.893 10.888H111.926C112.241 10.3071 112.884 9.93706 113.602 9.93706C114.713 9.93706 115.443 10.8096 115.443 12.2297V15.486ZM123.355 10.956H122.061V13.5956C122.061 14.2676 122.288 14.603 122.746 14.603C122.953 14.603 123.127 14.58 123.267 14.5465L123.3 15.4641C123.072 15.554 122.767 15.5989 122.388 15.5989C121.461 15.5989 120.907 15.0733 120.907 13.697V10.956H120.135V10.05H120.907V9.05412L122.061 8.69564V10.0489H123.355V10.956ZM129.58 15.486H128.405V12.3876C128.405 11.4148 128.047 10.9226 127.338 10.9226C126.729 10.9226 126.161 11.3479 126.161 12.209V15.486H124.986V7.55566H126.161V10.8211H126.185C126.555 10.2287 127.091 9.93706 127.776 9.93706C128.896 9.93706 129.58 10.8315 129.58 12.2528V15.486ZM135.958 13.0585H132.429C132.451 14.0878 133.115 14.6687 134.096 14.6687C134.618 14.6687 135.098 14.5788 135.522 14.4117L135.705 15.2508C135.205 15.4744 134.616 15.5862 133.93 15.5862C132.275 15.5862 131.296 14.512 131.296 12.8464C131.296 11.1796 132.299 9.92669 133.798 9.92669C135.15 9.92669 135.998 10.956 135.998 12.5109C136.006 12.6945 135.992 12.8782 135.958 13.0585ZM134.88 12.1974C134.88 11.3583 134.468 10.7658 133.716 10.7658C133.04 10.7658 132.506 11.3698 132.43 12.1974H134.88Z" fill="white"/>
</g>
<defs>
<linearGradient id="paint0_linear_1_1644" x1="111.036" y1="46.2193" x2="111.036" y2="-120.017" gradientUnits="userSpaceOnUse">
<stop stop-color="#1A1A1A" stop-opacity="0.1"/>
<stop offset="0.123" stop-color="#212121" stop-opacity="0.151"/>
<stop offset="0.308" stop-color="#353535" stop-opacity="0.227"/>
<stop offset="0.532" stop-color="#575757" stop-opacity="0.318"/>
<stop offset="0.783" stop-color="#858585" stop-opacity="0.421"/>
<stop offset="1" stop-color="#B3B3B3" stop-opacity="0.51"/>
</linearGradient>
<clipPath id="clip0_1_1644">
<rect width="151.354" height="46.0976" fill="white"/>
</clipPath>
</defs>
</svg>
