<svg width="152" height="47" viewBox="0 0 152 47" fill="none" xmlns="http://www.w3.org/2000/svg">
<g clip-path="url(#clip0_1_1655)">
<path d="M146.394 46.0905H6.25202C3.11284 46.0905 0.646332 43.556 0.646332 40.3303V5.76921C0.646332 2.54351 3.11284 0.0090332 6.25202 0.0090332H146.394C149.534 0.0090332 152 2.54351 152 5.76921V40.3303C152 43.556 149.534 46.0905 146.394 46.0905Z" fill="black"/>
<path d="M146.394 0.930662C148.973 0.930662 151.103 3.11953 151.103 5.76921V40.3303C151.103 42.98 148.973 45.1688 146.394 45.1688H6.25202C3.67341 45.1688 1.54324 42.98 1.54324 40.3303V5.76921C1.54324 3.11953 3.67341 0.930662 6.25202 0.930662H146.394ZM146.394 0.0090332H6.25202C3.11284 0.0090332 0.646332 2.65872 0.646332 5.76921V40.3303C0.646332 43.556 3.11284 46.0905 6.25202 46.0905H146.394C149.534 46.0905 152 43.556 152 40.3303V5.76921C152 2.65872 149.534 0.0090332 146.394 0.0090332Z" fill="#A6A6A6"/>
<path d="M53.7882 11.759C53.7882 12.6806 53.564 13.487 53.0034 14.0631C52.3307 14.7543 51.5459 15.0999 50.5369 15.0999C49.5279 15.0999 48.7431 14.7543 48.0704 14.0631C47.3977 13.3718 47.0614 12.5654 47.0614 11.5286C47.0614 10.4918 47.3977 9.68533 48.0704 8.99411C48.7431 8.30289 49.5279 7.95728 50.5369 7.95728C50.9854 7.95728 51.4338 8.07248 51.8823 8.30289C52.3307 8.53329 52.6671 8.7637 52.8913 9.10931L52.3307 9.68533C51.8823 9.10931 51.3217 8.8789 50.5369 8.8789C49.8642 8.8789 49.1915 9.10931 48.7431 9.68533C48.1825 10.1461 47.9583 10.8374 47.9583 11.6438C47.9583 12.4502 48.1825 13.1414 48.7431 13.6023C49.3036 14.0631 49.8642 14.4087 50.5369 14.4087C51.3217 14.4087 51.8823 14.1783 52.4428 13.6023C52.7792 13.2566 53.0034 12.7958 53.0034 12.2198H50.5369V11.2982H53.7882V11.759ZM58.9454 8.8789H55.9184V11.0678H58.7212V11.8742H55.9184V14.0631H58.9454V14.9847H55.0215V8.07248H58.9454V8.8789ZM62.6452 14.9847H61.7483V8.8789H59.8423V8.07248H64.5511V8.8789H62.6452V14.9847ZM67.8024 14.9847V8.07248H68.6993V14.9847H67.8024ZM72.5112 14.9847H71.6143V8.8789H69.7084V8.07248H74.305V8.8789H72.3991V14.9847H72.5112ZM83.162 14.0631C82.4893 14.7543 81.7045 15.0999 80.6955 15.0999C79.6865 15.0999 78.9017 14.7543 78.229 14.0631C77.5563 13.3718 77.22 12.5654 77.22 11.5286C77.22 10.4918 77.5563 9.68533 78.229 8.99411C78.9017 8.30289 79.6865 7.95728 80.6955 7.95728C81.7045 7.95728 82.4893 8.30289 83.162 8.99411C83.8347 9.68533 84.171 10.4918 84.171 11.5286C84.171 12.5654 83.8347 13.3718 83.162 14.0631ZM78.9017 13.487C79.3502 13.9479 80.0228 14.2935 80.6955 14.2935C81.3682 14.2935 82.0409 14.0631 82.4893 13.487C82.9378 13.0262 83.2741 12.335 83.2741 11.5286C83.2741 10.7222 83.0499 10.0309 82.4893 9.57013C82.0409 9.10931 81.3682 8.7637 80.6955 8.7637C80.0228 8.7637 79.3502 8.99411 78.9017 9.57013C78.4532 10.0309 78.1169 10.7222 78.1169 11.5286C78.1169 12.335 78.3411 13.0262 78.9017 13.487ZM85.4043 14.9847V8.07248H86.4133L89.6646 13.487V8.07248H90.5615V14.9847H89.6646L86.1891 9.33972V14.9847H85.4043Z" fill="white"/>
<path d="M76.9959 25.1228C74.3052 25.1228 72.175 27.1965 72.175 30.0766C72.175 32.8415 74.3052 35.0303 76.9959 35.0303C79.6867 35.0303 81.8168 32.9567 81.8168 30.0766C81.8168 27.0813 79.6867 25.1228 76.9959 25.1228ZM76.9959 32.9567C75.5384 32.9567 74.3052 31.6894 74.3052 29.9614C74.3052 28.2333 75.5384 26.9661 76.9959 26.9661C78.4534 26.9661 79.6867 28.1181 79.6867 29.9614C79.6867 31.6894 78.4534 32.9567 76.9959 32.9567ZM66.5693 25.1228C63.8786 25.1228 61.7484 27.1965 61.7484 30.0766C61.7484 32.8415 63.8786 35.0303 66.5693 35.0303C69.2601 35.0303 71.3902 32.9567 71.3902 30.0766C71.3902 27.0813 69.2601 25.1228 66.5693 25.1228ZM66.5693 32.9567C65.1119 32.9567 63.8786 31.6894 63.8786 29.9614C63.8786 28.2333 65.1119 26.9661 66.5693 26.9661C68.0268 26.9661 69.2601 28.1181 69.2601 29.9614C69.2601 31.6894 68.0268 32.9567 66.5693 32.9567ZM54.1247 26.6205V28.6941H58.9456C58.8335 29.8462 58.385 30.7678 57.8245 31.3438C57.1518 32.035 56.0306 32.8415 54.1247 32.8415C51.0976 32.8415 48.8554 30.4222 48.8554 27.3117C48.8554 24.2012 51.2097 21.7819 54.1247 21.7819C55.6943 21.7819 56.9275 22.4731 57.8245 23.2796L59.2819 21.7819C58.0487 20.6299 56.4791 19.7083 54.2368 19.7083C50.2007 19.7083 46.7252 23.1644 46.7252 27.3117C46.7252 31.459 50.2007 34.9151 54.2368 34.9151C56.4791 34.9151 58.0487 34.2239 59.3941 32.7263C60.7394 31.3438 61.1879 29.3854 61.1879 27.8877C61.1879 27.4269 61.1879 26.9661 61.0758 26.6205H54.1247ZM105.024 28.2333C104.576 27.0813 103.455 25.1228 100.988 25.1228C98.5218 25.1228 96.5037 27.0813 96.5037 30.0766C96.5037 32.8415 98.5218 35.0303 101.213 35.0303C103.343 35.0303 104.688 33.6479 105.136 32.8415L103.567 31.6894C103.006 32.4958 102.334 33.0719 101.213 33.0719C100.091 33.0719 99.4187 32.6111 98.8581 31.5742L105.249 28.8093L105.024 28.2333ZM98.5218 29.8462C98.5218 28.0029 99.9793 26.9661 100.988 26.9661C101.773 26.9661 102.558 27.4269 102.782 28.0029L98.5218 29.8462ZM93.2524 34.5695H95.3826V20.1691H93.2524V34.5695ZM89.889 26.1597C89.3284 25.5836 88.4315 25.0076 87.3104 25.0076C84.956 25.0076 82.7137 27.1965 82.7137 29.9614C82.7137 32.7263 84.8439 34.7999 87.3104 34.7999C88.4315 34.7999 89.3284 34.2239 89.7769 33.6479H89.889V34.3391C89.889 36.1824 88.88 37.2192 87.3104 37.2192C86.0771 37.2192 85.1802 36.2976 84.956 35.4911L83.1622 36.2976C83.7228 37.5648 85.0681 39.1777 87.4225 39.1777C89.889 39.1777 91.9071 37.68 91.9071 34.1087V25.3532H89.889V26.1597ZM87.4225 32.9567C85.965 32.9567 84.7318 31.6894 84.7318 29.9614C84.7318 28.2333 85.965 26.9661 87.4225 26.9661C88.88 26.9661 90.0011 28.2333 90.0011 29.9614C90.0011 31.6894 88.88 32.9567 87.4225 32.9567ZM114.778 20.1691H109.733V34.5695H111.863V29.1549H114.778C117.133 29.1549 119.375 27.4269 119.375 24.662C119.375 21.8971 117.133 20.1691 114.778 20.1691ZM114.89 27.0813H111.863V22.1275H114.89C116.46 22.1275 117.357 23.51 117.357 24.5468C117.245 25.814 116.348 27.0813 114.89 27.0813ZM127.783 25.0076C126.214 25.0076 124.644 25.6988 124.084 27.1965L125.99 28.0029C126.438 27.1965 127.111 26.9661 127.896 26.9661C129.017 26.9661 130.026 27.6573 130.138 28.8093V28.9245C129.802 28.6941 128.905 28.3485 128.008 28.3485C125.99 28.3485 123.972 29.5006 123.972 31.5742C123.972 33.5327 125.653 34.7999 127.447 34.7999C128.905 34.7999 129.577 34.1087 130.138 33.4175H130.25V34.5695H132.268V29.0397C132.044 26.5053 130.138 25.0076 127.783 25.0076ZM127.559 32.9567C126.887 32.9567 125.878 32.6111 125.878 31.6894C125.878 30.5374 127.111 30.1918 128.12 30.1918C129.017 30.1918 129.465 30.4222 130.026 30.6526C129.802 32.035 128.68 32.9567 127.559 32.9567ZM139.331 25.3532L136.977 31.5742H136.865L134.398 25.3532H132.156L135.856 34.1087L133.726 38.9472H135.856L141.573 25.3532H139.331ZM120.496 34.5695H122.626V20.1691H120.496V34.5695Z" fill="white"/>
<path d="M12.3061 8.6499C11.9698 8.99551 11.8577 9.57153 11.8577 10.2628V35.7227C11.8577 36.414 12.0819 36.99 12.4182 37.3356L12.5303 37.4508L26.4325 23.1656V22.9351L12.3061 8.6499Z" fill="url(#paint0_linear_1_1655)"/>
<path d="M30.9171 28.0037L26.3204 23.2804V22.9348L30.9171 18.2114L31.0292 18.3266L36.5228 21.5523C38.0924 22.474 38.0924 23.9716 36.5228 24.8932L30.9171 28.0037Z" fill="url(#paint1_linear_1_1655)"/>
<path d="M31.0292 27.8896L26.3204 23.051L12.3062 37.4515C12.8668 38.0275 13.6515 38.0275 14.6606 37.5667L31.0292 27.8896Z" fill="url(#paint2_linear_1_1655)"/>
<path d="M31.0292 18.2126L14.6606 8.65068C13.6515 8.07466 12.8668 8.18986 12.3062 8.76588L26.3204 23.0511L31.0292 18.2126Z" fill="url(#paint3_linear_1_1655)"/>
<path opacity="0.2" d="M30.9169 27.7729L14.6604 37.2196C13.7635 37.7957 12.9787 37.6805 12.4181 37.2196L12.306 37.3348L12.4181 37.45C12.9787 37.9109 13.7635 38.0261 14.6604 37.45L30.9169 27.7729Z" fill="black"/>
<path opacity="0.12" d="M12.3062 37.2211C11.9698 36.8755 11.8577 36.2994 11.8577 35.6082V35.7234C11.8577 36.4146 12.0819 36.9907 12.4183 37.3363V37.2211H12.3062ZM36.5227 24.5487L30.917 27.7744L31.0292 27.8896L36.5227 24.6639C37.3075 24.2031 37.6439 23.627 37.6439 23.051C37.6439 23.627 37.1954 24.0879 36.5227 24.5487Z" fill="black"/>
<path opacity="0.25" d="M14.6605 8.7653L36.5227 21.5529C37.1954 22.0137 37.6438 22.4745 37.6438 23.0505C37.6438 22.4745 37.3075 21.8985 36.5227 21.4377L14.6605 8.6501C13.0909 7.72847 11.8577 8.41969 11.8577 10.263V10.3782C11.8577 8.6501 13.0909 7.84368 14.6605 8.7653Z" fill="white"/>
</g>
<defs>
<linearGradient id="paint0_linear_1_1655" x1="25.0871" y1="10.0439" x2="5.75966" y2="28.8518" gradientUnits="userSpaceOnUse">
<stop stop-color="#00A0FF"/>
<stop offset="0.007" stop-color="#00A1FF"/>
<stop offset="0.26" stop-color="#00BEFF"/>
<stop offset="0.512" stop-color="#00D2FF"/>
<stop offset="0.76" stop-color="#00DFFF"/>
<stop offset="1" stop-color="#00E3FF"/>
</linearGradient>
<linearGradient id="paint1_linear_1_1655" x1="38.579" y1="23.0511" x2="11.4508" y2="23.0511" gradientUnits="userSpaceOnUse">
<stop stop-color="#FFE000"/>
<stop offset="0.409" stop-color="#FFBD00"/>
<stop offset="0.775" stop-color="#FFA500"/>
<stop offset="1" stop-color="#FF9C00"/>
</linearGradient>
<linearGradient id="paint2_linear_1_1655" x1="28.4808" y1="25.6961" x2="2.2725" y2="51.2015" gradientUnits="userSpaceOnUse">
<stop stop-color="#FF3A44"/>
<stop offset="1" stop-color="#C31162"/>
</linearGradient>
<linearGradient id="paint3_linear_1_1655" x1="8.82729" y1="0.213166" x2="20.5311" y2="11.6031" gradientUnits="userSpaceOnUse">
<stop stop-color="#32A071"/>
<stop offset="0.069" stop-color="#2DA771"/>
<stop offset="0.476" stop-color="#15CF74"/>
<stop offset="0.801" stop-color="#06E775"/>
<stop offset="1" stop-color="#00F076"/>
</linearGradient>
<clipPath id="clip0_1_1655">
<rect width="151.354" height="46.0976" fill="white" transform="translate(0.646332 0.000244141)"/>
</clipPath>
</defs>
</svg>
